<?xml version="1.0" encoding="utf-8"?>
<!-- Generator: Adobe Illustrator 15.0.0, SVG Export Plug-In . SVG Version: 6.00 Build 0)  -->
<!DOCTYPE svg PUBLIC "-//W3C//DTD SVG 1.1//EN" "http://www.w3.org/Graphics/SVG/1.1/DTD/svg11.dtd">
<svg version="1.1" id="Layer_1" xmlns="http://www.w3.org/2000/svg" xmlns:xlink="http://www.w3.org/1999/xlink" x="0px" y="0px"
	 width="860px" height="199px" viewBox="0 0 860 199" enable-background="new 0 0 860 199" xml:space="preserve">
<g>
	<path fill="#FFFFFF" d="M67.773,63.936v32.55h-8.939l7.142,40.878h1.973l15.273-73.428h38.515l16.086,73.428h1.985l6.541-40.878
		h-9.114v-32.55h58.552v32.55h-8.532l-19.255,77.804h-59.152l-7.136-33.34h-1.991l-6.736,33.34H34.428L14.173,96.486H5.835v-32.55
		H67.773L67.773,63.936z"/>
	<path fill="#FFFFFF" d="M264.486,141.752h8.745v-32.551c0-4.509-0.978-7.758-2.889-9.721c-1.924-1.972-4.8-2.97-8.629-2.97
		c-3.841,0-6.724,0.992-8.66,2.97c-1.917,1.988-2.869,5.237-2.869,9.721v32.551h8.738v32.545h-63.133v-32.545h8.745V52.416h-8.745
		V19.869h54.389v57.556c1.578-1.583,3.374-3.328,5.365-5.249c1.984-1.927,4.333-3.681,7.045-5.27
		c2.725-1.584,5.777-2.938,9.224-4.069c3.435-1.12,7.397-1.678,11.924-1.678c10.838,0,19.413,3.859,25.693,11.614
		c6.287,7.734,9.436,19.883,9.436,36.427v32.532h8.721v32.55h-63.098V141.752z"/>
	<path fill="#FFFFFF" d="M387.549,141.752h8.72v32.545H333.16v-32.545h8.727v-45.26h-8.727V63.942h54.389V141.752z M346.662,19.869
		h36.524v33.145h-36.524V19.869z"/>
	<path fill="#FFFFFF" d="M402.041,141.545c9.915,1.445,18.289,3.386,24.625,4.279c6.438,0.904,11.165,1.086,14.866,1.086
		c5.832,0,9.668-0.437,11.525-1.396c1.862-0.909,2.767-2.197,2.767-3.755c0-1.718-0.972-2.993-2.975-3.885
		c-1.983-0.849-6.086-1.729-12.312-2.682c-13.763-1.839-24.588-5.831-32.447-11.907c-7.883-6.086-11.808-14.685-11.808-25.795
		c0-5.169,0.922-9.967,2.779-14.391c1.844-4.442,4.837-8.271,8.939-11.521c4.096-3.244,9.356-5.783,15.783-7.637
		c6.396-1.857,14.109-2.776,23.112-2.776c9.794,0,18.631,0.558,26.507,1.689c7.883,1.132,14.382,2.567,19.552,4.293v29.036
		c-6.348-0.807-12.628-2.448-19.271-3.428c-6.409-0.959-12.618-1.424-18.46-1.424c-5.559,0-9.503,0.392-11.798,1.18
		c-2.304,0.795-3.488,1.987-3.488,3.575c0,0.788,0.2,1.483,0.594,2.08c0.414,0.577,1.171,1.111,2.282,1.579
		c1.146,0.451,2.693,0.854,4.667,1.179c1.991,0.338,4.508,0.629,7.543,0.889c15.364,1.44,26.669,5.219,33.935,11.283
		c7.3,6.08,10.939,14.702,10.939,25.935c0,11.772-4.041,21.051-12.119,27.829c-8.057,6.809-20.71,10.193-37.926,10.193
		c-10.031,0-19.225-0.601-27.477-1.795c-8.27-1.172-15.055-2.621-20.333-4.339v-29.389h-0.007v0.012H402.041z"/>
	<path fill="#FFFFFF" d="M557.059,63.936h26.804v32.55h-26.804v32.54c0,4.509,0.952,7.756,2.883,9.728
		c1.93,1.961,6.438,4.624,10.279,4.624c5.297,0,9.127-0.37,14.825-1.553v29.284c-4.247,1.591-9.286,2.973-15.165,4.164
		c-5.898,1.176-12.209,1.794-18.962,1.794c-6.755,0-12.744-0.721-17.981-2.201c-5.23-1.438-9.624-3.944-13.197-7.435
		c-3.575-3.501-6.312-8.119-8.235-13.811c-1.924-5.687-2.877-12.769-2.877-21.238V96.458h-8.721V63.924
		c5.3,0,9.128-1.359,11.514-4.075c2.372-2.716,3.567-6.19,3.567-10.422v-8.929h42.07V63.936z"/>
	<path fill="#FFFFFF" d="M590.979,19.869h54.384v121.883h8.744v32.545h-63.128v-32.545h8.74V52.416h-8.74V19.869z"/>
	<path fill="#FFFFFF" d="M714.056,61.16c10.201,0,18.664,1.478,25.413,4.454c6.748,2.989,12.173,6.854,16.288,11.615
		c4.103,4.772,6.979,10.191,8.622,16.286c1.687,6.083,2.495,12.24,2.495,18.46v14.278h-64.331v1.201
		c0,4.769,1.365,8.332,4.055,10.729c2.712,2.365,7.658,3.568,14.801,3.568c8.731,0,16.997-0.26,24.346-1.178
		c7.512-0.915,12.961-1.687,17.737-3.265v29.893c-2.392,1.164-5.146,2.343-8.24,3.477c-3.12,1.117-6.657,2.179-10.606,3.167
		c-3.97,1.002-8.485,1.798-13.509,2.398c-5.043,0.594-10.747,0.897-17.076,0.897c-9.14,0-17.392-1.19-24.807-3.563
		c-7.423-2.396-13.728-5.995-18.946-10.818c-5.248-4.819-9.24-10.827-12.045-18.047c-2.761-7.197-4.169-15.719-4.169-25.506
		c0-9.666,1.408-18.12,4.169-25.401c2.785-7.27,6.797-13.329,12.045-18.156c5.208-4.83,11.517-8.447,18.946-10.826
		C696.664,62.352,704.94,61.16,714.056,61.16z M714.056,96.492c-3.835,0-6.724,0.992-8.647,2.971
		c-1.917,1.988-2.87,5.237-2.87,9.739v1.165h23.017v-1.165c0-4.527-0.94-7.77-2.877-9.739
		C720.78,97.483,717.903,96.492,714.056,96.492z"/>
	<path fill="#FFFFFF" d="M826.723,63.936h26.799v32.55h-26.799v32.54c0,4.509,0.961,7.756,2.884,9.728
		c1.918,1.961,5.479,4.019,9.32,4.271c5.65,0.365,10.098,0,15.796-1.2v29.284c-4.248,1.591-9.303,2.979-15.183,4.164
		c-5.88,1.193-12.215,1.794-18.964,1.794c-6.747,0-12.725-0.703-17.968-2.184c-5.229-1.456-9.623-3.943-13.191-7.452
		c-3.574-3.495-6.342-8.1-8.241-13.792c-1.917-5.686-2.876-12.762-2.876-21.239V96.48h-8.738V63.93c5.31,0,9.121-1.359,11.523-4.075
		c2.367-2.715,3.549-6.189,3.549-10.422v-8.935h42.079L826.723,63.936L826.723,63.936z"/>
</g>
</svg>
