<?xml version="1.0" encoding="utf-8"?>
<!-- Generator: Adobe Illustrator 15.0.0, SVG Export Plug-In . SVG Version: 6.00 Build 0)  -->
<!DOCTYPE svg PUBLIC "-//W3C//DTD SVG 1.1//EN" "http://www.w3.org/Graphics/SVG/1.1/DTD/svg11.dtd">
<svg version="1.1" id="Layer_1" xmlns="http://www.w3.org/2000/svg" xmlns:xlink="http://www.w3.org/1999/xlink" x="0px" y="0px"
	 width="60px" height="60px" viewBox="0 0 60 60" enable-background="new 0 0 60 60" xml:space="preserve">
<g>
	<path fill="#D1D3D4" d="M59.188,22.813c-0.001-0.008-0.002-0.017-0.005-0.026l-4.915,7.177l-0.427,0.731L49,37.873V38h-0.083h4.034
		C49.679,47,40.644,54.329,30,54.329c-12.462,0-22.725-9.425-24.106-21.519l-4.47,6.511C5.344,51.365,16.649,60.068,30,60.068
		c14.997,0,27.426-10.986,29.689-25.348c0.005-0.03,0.012-0.063,0.017-0.093c0.232-1.509,0.354-3.055,0.354-4.627
		C60.061,27.523,59.754,25.117,59.188,22.813z"/>
	<path fill="#D1D3D4" d="M6.881,28.146L11,22.093v-0.027V22H7.074C10.369,13,19.385,5.71,30,5.71
		c12.438,0,22.681,9.367,24.096,21.424l4.461-6.507C54.616,8.615,43.328-0.063,30-0.063c-14.997,0-27.426,10.984-29.689,25.345
		c0,0.005-0.002,0.01-0.002,0.016C0.067,26.831-0.061,28.4-0.061,30c0,2.42,0.294,4.771,0.833,7.026
		c0.003,0.01,0.005,0.021,0.008,0.033l4.916-7.149L6.881,28.146z"/>
</g>
</svg>
