<?xml version="1.0" encoding="utf-8"?>
<!-- Generator: Adobe Illustrator 16.0.0, SVG Export Plug-In . SVG Version: 6.00 Build 0)  -->
<!DOCTYPE svg PUBLIC "-//W3C//DTD SVG 1.1//EN" "http://www.w3.org/Graphics/SVG/1.1/DTD/svg11.dtd">
<svg version="1.1" id="Layer_1" xmlns="http://www.w3.org/2000/svg" xmlns:xlink="http://www.w3.org/1999/xlink" x="0px" y="0px"
	 width="142.982px" height="46px" viewBox="0 0 142.982 46" enable-background="new 0 0 142.982 46" xml:space="preserve">
<g>
	<path fill="#FF9800" d="M12.931,17.442v5.238h-1.438l1.149,6.579h0.317l2.458-11.817h6.198l2.589,11.817h0.319l1.053-6.579H24.11
		v-5.238h9.423v5.238H32.16l-3.099,12.521h-9.52l-1.148-5.365h-0.32l-1.084,5.365H7.565L4.305,22.68H2.964v-5.238H12.931
		L12.931,17.442z"/>
	<path fill="#FF9800" d="M44.589,29.965h1.407v-5.238c0-0.726-0.157-1.249-0.465-1.564c-0.31-0.317-0.772-0.478-1.389-0.478
		c-0.618,0-1.082,0.16-1.394,0.478c-0.309,0.32-0.462,0.843-0.462,1.564v5.238h1.406v5.237h-10.16v-5.237h1.407V15.588h-1.407V10.35
		h8.753v9.263c0.254-0.255,0.543-0.536,0.863-0.845c0.319-0.31,0.697-0.592,1.134-0.848c0.438-0.255,0.93-0.473,1.484-0.655
		c0.553-0.18,1.19-0.27,1.919-0.27c1.744,0,3.124,0.621,4.135,1.869c1.012,1.245,1.519,3.2,1.519,5.862v5.235h1.403V35.2H44.589
		V29.965z"/>
	<path fill="#FF9800" d="M64.393,29.965h1.403v5.237H55.64v-5.237h1.404v-7.284H55.64v-5.238h8.753V29.965z M57.813,10.35h5.878
		v5.334h-5.878V10.35z"/>
	<path fill="#FF9800" d="M66.725,29.932c1.596,0.232,2.943,0.545,3.963,0.688c1.036,0.146,1.797,0.175,2.393,0.175
		c0.938,0,1.555-0.07,1.854-0.225c0.3-0.146,0.445-0.354,0.445-0.604c0-0.276-0.156-0.481-0.479-0.625
		c-0.319-0.137-0.979-0.278-1.981-0.432c-2.215-0.296-3.957-0.938-5.222-1.916c-1.269-0.979-1.9-2.363-1.9-4.151
		c0-0.832,0.148-1.604,0.447-2.316c0.297-0.715,0.778-1.331,1.438-1.854c0.659-0.522,1.506-0.931,2.54-1.229
		c1.029-0.299,2.271-0.447,3.72-0.447c1.576,0,2.998,0.09,4.266,0.272c1.269,0.182,2.314,0.413,3.146,0.691v4.673
		c-1.021-0.13-2.032-0.394-3.102-0.552c-1.031-0.154-2.03-0.229-2.971-0.229c-0.895,0-1.529,0.063-1.898,0.19
		c-0.371,0.128-0.562,0.32-0.562,0.575c0,0.127,0.032,0.239,0.096,0.335c0.066,0.093,0.188,0.179,0.367,0.254
		c0.185,0.073,0.433,0.138,0.751,0.19c0.32,0.054,0.726,0.101,1.214,0.143c2.473,0.231,4.292,0.84,5.461,1.815
		c1.175,0.979,1.761,2.367,1.761,4.174c0,1.895-0.65,3.388-1.95,4.479c-1.297,1.096-3.333,1.641-6.104,1.641
		c-1.614,0-3.094-0.097-4.422-0.289c-1.331-0.188-2.423-0.422-3.272-0.698V29.93h-0.001L66.725,29.932L66.725,29.932z"/>
	<path fill="#FF9800" d="M91.673,17.442h4.313v5.238h-4.313v5.237c0,0.726,0.153,1.248,0.463,1.565
		c0.312,0.315,1.037,0.744,1.655,0.744c0.853,0,1.469-0.06,2.386-0.25v4.713c-0.684,0.256-1.494,0.479-2.44,0.67
		c-0.949,0.189-1.965,0.289-3.052,0.289s-2.051-0.116-2.894-0.354c-0.842-0.231-1.549-0.635-2.124-1.196
		c-0.575-0.563-1.016-1.307-1.325-2.223c-0.31-0.915-0.463-2.055-0.463-3.418v-5.781h-1.403V17.44c0.853,0,1.469-0.219,1.853-0.656
		c0.382-0.437,0.574-0.996,0.574-1.677V13.67h6.771V17.442L91.673,17.442z"/>
	<path fill="#FF9800" d="M97.132,10.35h8.752v19.615h1.407v5.237H97.132v-5.237h1.406V15.588h-1.406V10.35z"/>
	<path fill="#FF9800" d="M116.938,16.995c1.642,0,3.004,0.238,4.09,0.717c1.086,0.481,1.959,1.103,2.621,1.869
		c0.66,0.768,1.123,1.64,1.388,2.621c0.271,0.979,0.401,1.97,0.401,2.971v2.298h-10.353v0.193c0,0.768,0.22,1.341,0.652,1.727
		c0.437,0.381,1.232,0.574,2.382,0.574c1.405,0,2.735-0.042,3.918-0.189c1.209-0.147,2.086-0.271,2.854-0.525v4.811
		c-0.385,0.188-0.828,0.377-1.326,0.56c-0.502,0.18-1.071,0.351-1.707,0.51c-0.639,0.161-1.365,0.289-2.174,0.386
		c-0.812,0.096-1.729,0.145-2.748,0.145c-1.471,0-2.799-0.191-3.992-0.573c-1.194-0.386-2.209-0.965-3.049-1.741
		c-0.845-0.775-1.487-1.742-1.938-2.904c-0.444-1.158-0.671-2.529-0.671-4.104c0-1.556,0.227-2.916,0.671-4.088
		c0.448-1.17,1.094-2.145,1.938-2.922c0.838-0.777,1.854-1.359,3.049-1.742C114.139,17.187,115.471,16.995,116.938,16.995z
		 M116.938,22.681c-0.617,0-1.082,0.16-1.392,0.478c-0.309,0.32-0.462,0.843-0.462,1.567v0.188h3.704v-0.188
		c0-0.729-0.151-1.25-0.463-1.567C118.02,22.841,117.557,22.681,116.938,22.681z"/>
	<path fill="#FF9800" d="M135.07,17.442h4.312v5.238h-4.312v5.237c0,0.726,0.154,1.248,0.464,1.565
		c0.309,0.315,0.882,0.646,1.5,0.688c0.909,0.059,1.625,0,2.542-0.193v4.713c-0.684,0.256-1.497,0.479-2.443,0.67
		c-0.946,0.192-1.966,0.289-3.052,0.289s-2.048-0.113-2.892-0.352c-0.842-0.234-1.549-0.635-2.123-1.199
		c-0.575-0.562-1.021-1.304-1.326-2.22c-0.309-0.915-0.463-2.054-0.463-3.418v-5.781h-1.406v-5.238c0.854,0,1.468-0.219,1.854-0.656
		c0.381-0.437,0.571-0.996,0.571-1.677V13.67h6.771L135.07,17.442L135.07,17.442z"/>
</g>
</svg>
